# xmcd
#
# Track frame offsets:
#	150
#	21455
#	39168
#	59031
#	75364
#	92816
#	110872
#	131070
#	147983
#	164753
#	184863
#	201726
#	218768
#	236640
#	251350
#	268889
#
# Disc length: 3823 seconds
#
# Revision: 5
# Processed by: cddbd v1.5.2PL0 Copyright (c) Steve Scherf et al.
# Submitted via: EasyCDDAExtractor 16.0.9.1
#
DISCID=fa0eed10
DTITLE=Thalia - Greatest Hits
DYEAR=2004
DGENRE=Latin
TTITLE0=Piel Morena
TTITLE1=Maria La Del Barrio
TTITLE2=Amor A La Mexicana
TTITLE3=Mujer Latina
TTITLE4=Rosalinda
TTITLE5=Arrasando
TTITLE6=Regresa A Mi
TTITLE7=Entre El Mar Y Una Estrella
TTITLE8=Tu Y Yo
TTITLE9=No Me Enseñaste
TTITLE10=A Quien Le Importa
TTITLE11=Me Pones Sexy
TTITLE12=Cerca De Ti
TTITLE13=Toda La Felicidad
TTITLE14=Cuando Tu Me Tocas (Inedita)
TTITLE15=Accion Y Reaccion (Inedita)
EXTD=
EXTT0=
EXTT1=
EXTT2=
EXTT3=
EXTT4=
EXTT5=
EXTT6=
EXTT7=
EXTT8=
EXTT9=
EXTT10=
EXTT11=
EXTT12=
EXTT13=
EXTT14=
EXTT15=
PLAYORDER=
